<?xml version="1.0" encoding="iso-8859-1"?>
<!-- Generator: Adobe Illustrator 19.0.0, SVG Export Plug-In . SVG Version: 6.00 Build 0)  -->
<svg version="1.1" id="Capa_1" xmlns="http://www.w3.org/2000/svg" xmlns:xlink="http://www.w3.org/1999/xlink" x="0px" y="0px"
	 viewBox="0 0 512 512" style="enable-background:new 0 0 512 512;" xml:space="preserve">
<g>
	<g>
		<path d="M103.531,344.469c-4.16-4.16-10.923-4.16-15.083,0c-4.16,4.16-4.16,10.923,0,15.083
			c45.803,45.781,45.803,88.448,0,134.251c-4.16,4.16-4.16,10.923,0,15.083C90.539,510.955,93.269,512,96,512
			s5.461-1.045,7.531-3.115C157.312,455.104,157.312,398.251,103.531,344.469z"/>
	</g>
</g>
<g>
	<g>
		<path d="M96,277.333c-23.531,0-42.667,19.136-42.667,42.667S72.469,362.667,96,362.667c23.531,0,42.667-19.136,42.667-42.667
			C138.667,296.469,119.531,277.333,96,277.333z M96,341.333c-11.755,0-21.333-9.579-21.333-21.333S84.245,298.667,96,298.667
			c11.755,0,21.333,9.579,21.333,21.333S107.755,341.333,96,341.333z"/>
	</g>
</g>
<g>
	<g>
		<path d="M506.517,321.344l-192-106.667c-3.947-2.197-8.832-1.664-12.224,1.323s-4.523,7.765-2.859,11.968l85.333,213.333
			c1.6,4.011,5.461,6.656,9.771,6.699c0.043,0,0.085,0,0.128,0c4.267,0,8.128-2.539,9.792-6.464l30.315-70.741l70.741-30.315
			c3.733-1.6,6.251-5.205,6.464-9.259C512.192,327.168,510.08,323.328,506.517,321.344z"/>
	</g>
</g>
<g>
	<g>
		<path d="M131.861,297.088c-0.021,0-0.043,0-0.043-0.021c-2.005-3.157-4.459-5.973-7.189-8.469
			c-0.341-0.299-0.704-0.576-1.045-0.875c-2.283-1.963-4.8-3.627-7.424-5.077c-0.725-0.405-1.429-0.832-2.176-1.195
			c-2.901-1.387-5.931-2.453-9.067-3.136c-0.939-0.213-1.941-0.235-2.923-0.363c-2.645-0.384-5.333-0.597-8.021-0.405
			c-9.429,0.448-17.984,3.968-24.853,9.579c5.12,3.648,10.325,7.232,15.936,10.581c2.219,1.301,4.779,1.771,7.296,1.344
			c8.789-1.536,18.261,2.987,22.549,11.328c1.152,2.261,3.072,4.032,5.397,5.013c5.845,2.432,12.075,4.331,18.176,6.421
			c0.021-0.597,0.192-1.195,0.192-1.813C138.667,311.552,136.128,303.723,131.861,297.088z"/>
	</g>
</g>
<g>
	<g>
		<path d="M311.488,315.541c-51.072,7.957-105.344,4.48-153.131-9.493C159.36,310.549,160,315.2,160,320
			c0,2.859-0.469,5.589-0.853,8.341c30.677,8.384,63.445,12.992,96.853,12.992c21.547,0,42.816-1.963,63.595-5.525L311.488,315.541z
			"/>
	</g>
</g>
<g>
	<g>
		<path d="M256,0C114.837,0,0,76.565,0,170.667c0,37.461,18.709,73.557,52.117,102.976c5.376-5.099,11.584-9.344,18.496-12.331
			c-31.488-26.027-49.28-57.92-49.28-90.645C21.333,88.32,126.613,21.333,256,21.333S490.667,88.32,490.667,170.667
			c0,33.067-17.216,64.427-48.725,90.389l19.776,10.987C493.973,242.923,512,207.403,512,170.667C512,76.565,397.163,0,256,0z"/>
	</g>
</g>
<g>
</g>
<g>
</g>
<g>
</g>
<g>
</g>
<g>
</g>
<g>
</g>
<g>
</g>
<g>
</g>
<g>
</g>
<g>
</g>
<g>
</g>
<g>
</g>
<g>
</g>
<g>
</g>
<g>
</g>
</svg>
