<svg id="Layer_1" enable-background="new 0 0 512 512" height="512" viewBox="0 0 512 512" width="512" xmlns="http://www.w3.org/2000/svg"><path d="m416 273.084h-86.111c-5.453 0-9.889-4.437-9.889-9.889 0-3.332-1.378.423 30.311-62.956 3.952-7.903.748-17.515-7.156-21.466-7.903-3.954-17.515-.75-21.466 7.155l-15.578 31.155h-74.111c-8.836 0-16 7.163-16 16s7.164 16 16 16h58.457c-9.785 27.42 10.664 56 39.432 56h86.111c8.836 0 16-7.163 16-16s-7.164-15.999-16-15.999z"/><path d="m506.479 148.993-84.663-73.375c-20.225-17.529-49.122-15.852-67.364.51-80.408-66.107-200.115-54.982-267.012 25.909-.215.264-3.264 4.08-13.951 17.45-47.39 59.326-73.489 133.808-73.489 209.727 0 81.736 66.073 149.7 149.71 149.7 3.08 0 2.939-.019 23.775-.658 48.951-1.484 100.425-36.268 100.425-89.002 0-33.613-23.003-69.99-58.08-69.99-44.64 0-66.328 53.949-35.144 85.134 6.248 6.248 16.378 6.248 22.627 0 6.248-6.248 6.248-16.379 0-22.627-11.302-11.302-3.335-30.507 12.516-30.507 4.806 0 9.31 1.886 12.682 5.309 8.64 8.771 13.398 20.377 13.398 32.682 0 33.62-36.518 56.019-69.401 57.018-20.227.62-20.282.643-22.799.643-65.925 0-117.71-53.606-117.71-117.7 0-68.689 23.614-136.078 66.488-189.75 13.873-17.357 30.671-41.707 68.126-59.323 58.244-27.421 130.018-17.545 178.76 30.866 7.898 7.831 21.238 5.382 25.841-4.731 5.239-11.528 20.07-14.772 29.642-6.476l78.764 68.263c-3.489 32.019-30.691 57.021-63.622 57.021h-56c-8.836 0-16 7.163-16 16s7.164 16 16 16h56c52.935 0 96-43.065 96-96 .002-4.642-2.013-9.054-5.519-12.093z"/><path d="m61.075 306.815-12.597 50.389c-2.143 8.573 3.069 17.26 11.642 19.403 8.57 2.139 17.258-3.063 19.403-11.642l12.597-50.389c9.447-37.789 42.766-64.391 81.503-65.442l2.405 40.889c.497 8.457 7.5 15.061 15.972 15.061h48c8.836 0 16-7.163 16-16s-7.164-16-16-16h-32.914l-5.646-95.99c-1.32-22.436-19.958-40.01-42.433-40.01-14.845 0-28.812 7.908-36.448 20.637l-16.279 27.131c-4.546 7.578-2.089 17.406 5.488 21.952 7.577 4.549 17.405 2.089 21.952-5.487l16.279-27.132c5.308-8.848 18.892-5.475 19.497 4.788l2.247 38.201c-52.648 1.867-97.806 38.191-110.668 89.641z"/></svg>