<?xml version="1.0" encoding="iso-8859-1"?>
<!-- Generator: Adobe Illustrator 19.0.0, SVG Export Plug-In . SVG Version: 6.00 Build 0)  -->
<svg version="1.1" id="Capa_1" xmlns="http://www.w3.org/2000/svg" xmlns:xlink="http://www.w3.org/1999/xlink" x="0px" y="0px"
	 viewBox="0 0 512 512" style="enable-background:new 0 0 512 512;" xml:space="preserve">
<g>
	<g>
		<path d="M497,241h-70c-8.284,0-15,6.716-15,15s6.716,15,15,15h70c8.284,0,15-6.716,15-15S505.284,241,497,241z"/>
	</g>
</g>
<g>
	<g>
		<path d="M360,241h-70c-8.284,0-15,6.716-15,15s6.716,15,15,15h70c8.284,0,15-6.716,15-15S368.284,241,360,241z"/>
	</g>
</g>
<g>
	<g>
		<path d="M222,241h-70c-8.284,0-15,6.716-15,15s6.716,15,15,15h70c8.284,0,15-6.716,15-15S230.284,241,222,241z"/>
	</g>
</g>
<g>
	<g>
		<path d="M85,241H15c-8.284,0-15,6.716-15,15s6.716,15,15,15h70c8.284,0,15-6.716,15-15S93.284,241,85,241z"/>
	</g>
</g>
<g>
	<g>
		<path d="M445.338,170.598l-36.842-120C406.563,44.299,400.745,40,394.157,40H117.842c-6.588,0-12.405,4.299-14.339,10.598
			l-36.842,120c-1.397,4.548-0.552,9.49,2.276,13.317C71.765,187.742,76.241,190,81,190h350c4.759,0,9.235-2.258,12.062-6.085
			C445.89,180.089,446.734,175.147,445.338,170.598z"/>
	</g>
</g>
<g>
	<g>
		<path d="M443.063,328.085C440.235,324.258,435.759,322,431,322H81c-4.759,0-9.235,2.258-12.063,6.085
			c-2.828,3.826-3.672,8.768-2.276,13.317l36.842,120c1.933,6.299,7.751,10.598,14.339,10.598h276.316
			c6.588,0,12.405-4.299,14.339-10.598l36.842-120C446.736,336.854,445.891,331.912,443.063,328.085z"/>
	</g>
</g>
<g>
</g>
<g>
</g>
<g>
</g>
<g>
</g>
<g>
</g>
<g>
</g>
<g>
</g>
<g>
</g>
<g>
</g>
<g>
</g>
<g>
</g>
<g>
</g>
<g>
</g>
<g>
</g>
<g>
</g>
</svg>
