<svg id="Capa_1" enable-background="new 0 0 488.471 488.471" height="512" viewBox="0 0 488.471 488.471" width="512" xmlns="http://www.w3.org/2000/svg"><path d="m36.075 226.213 59.479 13.834c5.754-24.79 17.829-47.986 34.912-67.066l-45.496-40.726c-23.911 26.713-40.815 59.21-48.895 93.958z"/><path d="m30.53 304.921c5.618 39.459 22.232 76.517 48.06 107.136l47.011-39.235c-18.442-21.883-30.308-48.313-34.307-76.458 0 .001-60.764 8.558-60.764 8.557z"/><path d="m274.765 63.496v-63.496l-91.588 91.588 91.588 91.588v-57.973c69.586 14.186 122.118 75.85 122.118 149.561 0 84.165-68.482 152.647-152.647 152.647-25.625 0-50.952-6.455-73.223-18.678l-29.367 53.546c31.26 17.128 66.739 26.191 102.59 26.191 117.839 0 213.706-95.881 213.706-213.706-.001-107.433-79.786-196.374-183.177-211.268z"/></svg>